<svg xmlns="http://www.w3.org/2000/svg" xml:space="preserve" width="2000" height="159" data-id="lg_CX19xaqz0McT9L8eZa" data-version="1" viewBox="0 0 2000 159"><g data-padding="20"><g transform="translate(10 2.855)scale(.9641)"><rect width="475.209" height="128.82" x="509.267" y="-65.05" fill="none" rx="0" ry="0" transform="translate(279.83 64.87)"/><path d="M810.412 96.01q-1.95-1.11-3.37-2.33-1.42-1.23-1.42-2.62 0-2.67 2.28-2.67 1.51 0 3.34 1.67 1.84 1.67 4.12 2.92t4.95 2.14q5.51 1.84 10.18 1.84t7.2-.61 4.26-1.67q3.67-2.28 3.67-5.84 0-3.28-3.17-6.62-2.67-2.84-7.57-6.79l-9.51-7.45q-14.3-11.02-16.85-20.14-.89-3.17-.89-7.07 0-3.89 1.75-7.67 1.75-3.79 5.2-6.62 7.4-6.18 20.14-6.18 6.51 0 11.68 1.92t7.06 3.42q1.9 1.5 1.9 2.73 0 2.56-2.12 2.56-1.22 0-2.61-1.23-1.39-1.22-3.09-2.14t-3.87-1.64q-4.67-1.56-9.18-1.56-8.28 0-8.28 5.46 0 2.28 1.5 4.22 2.67 3.4 10.43 9.71t12.46 11.04 7.15 8.51q3.89 5.96 3.89 12.38 0 6.43-2.25 10.9-2.25 4.48-6.32 7.71-8.56 6.79-21.25 6.79-12.68 0-21.41-5.07m77.66-65.14q-5.73 0-8.96-2.56t-3.23-6.73q0-3.5 3.56-6.01 3.79-2.67 8.01-2.67 4.23 0 6.54.84 2.31.83 3.92 2.17 3.23 2.72 3.23 6.34t-3.67 6.12-9.4 2.5m-11.69 69.15V40.61h23.92v59.41Zm79.32 0v-3.67q-7.12 4.73-15.8 4.73-11.51 0-18.47-5.79-7.23-5.95-7.23-16.52 0-9.35 7.18-15.35 7.34-6.07 19.3-6.07 8.01 0 15.02 3.06v-15.3q-5.06-1.44-8.93-1.44-3.86 0-6.53.33t-5.07 1q-5.17 1.45-7.84 3.9-1.56 1.44-2.84 1.44t-1.94-.64q-.67-.64-.67-1.42 0-.77.28-1.41.27-.64 1.05-1.31 1.67-1.45 5.57-2.89 8.06-3.06 16.18-3.06 24.7 0 31.55 11.79 3 5.23 3 13.74v34.88Zm0-8.46V64.75q-7.01-3.39-13.96-3.39-1.11 0-2.12.16V96.9q.28.06.62.06h.66q7.62 0 14.8-5.4m66.82 8.46V21.3h23.89q8.88 0 10.77.06 8.23.39 11.62 1.92 3.4 1.53 5.4 3.42 4.28 4.23 4.28 10.24 0 5.95-4.17 10.45-1.28 1.39-2.95 2.4 9.07 1.66 14.86 7.62 6.28 6.45 6.28 15.74 0 9.46-5.84 16.3-8.18 9.46-25.25 10.35-4.34.22-8.57.22Zm36.49-51.35 2.84.34h.89q4.4 0 7.62-3.23 3.45-3.45 3.45-8.45 0-6.12-5.28-9.41-2.67-1.67-5.32-1.97-2.64-.31-4.14-.42-3.12-.22-8.18-.22V95.9h6.18q9.45 0 15.41-2.33 7.12-2.45 11.29-7.9 3.95-5.18 3.95-10.85t-1.67-9.57q-1.67-3.89-4.84-6.62-6.45-5.62-17.97-5.62l-3.84.34q-1.78 0-2.61-.73-.84-.72-.84-1.67 0-2.28 3.06-2.28m98.51 37.84q2.17 0 2.17 2 0 1.51-1.94 3.56-8.79 9.02-24.09 9.02-13.74 0-23.14-8.29-9.74-8.62-9.74-21.81 0-13.46 8.79-22.14 9.29-9.23 24.7-9.23 12.35 0 20.75 7.51 9.07 8.06 9.07 21.19 0 1.89-.11 4.01h-36.72v23.86q3.78.78 8.51.78 10.02 0 17.08-6.62 1.45-1.45 2.06-2.28 1.28-1.56 2.61-1.56m-14.85-18.24V44.73q-3.62-1.05-8.18-1.05t-7.23.61v23.98Zm35.56 31.75V21.3h23.92v78.72Zm42.11 0V21.3h23.92v78.72Z"/><g stroke="#000" stroke-width="3" transform="translate(80.96 150.22)"><path d="M667.233-.64H826.51" vector-effect="non-scaling-stroke"/>undefined
        undefined</g><g stroke="#000" stroke-width="3" transform="translate(479.04 149.2)"><path d="M667.233-.64H826.51" vector-effect="non-scaling-stroke"/>undefined
        undefined</g><rect width="214.515" height="20.34" x="639.615" y="-10.81" fill="none" rx="0" ry="0" transform="translate(279.83 149.65)"/><path d="M926.552 154.17h-1.31l2.51-12.59h1.32Zm12.59.08q-1.2 0-2.14-.49-.93-.48-1.46-1.38-.52-.9-.52-2.14 0-1.21.4-2.23.39-1.03 1.11-1.79.72-.77 1.7-1.18.98-.42 2.13-.42 1.25 0 2.11.44.86.45 1.33 1.28.47.84.47 2.03 0 1.27-.35 2.35t-1.04 1.87q-.68.79-1.62 1.23-.95.43-2.12.43m.27-1.14q1.19 0 2.12-.56.92-.57 1.45-1.58.53-1 .53-2.28 0-1.4-.82-2.18-.81-.77-2.29-.77-1.17 0-2.1.57-.94.58-1.47 1.58t-.53 2.29q0 1.39.82 2.16t2.29.77m4.34 1.05h-1.23l.54-2.72.54-1.91.18-1.97 1.35-6.75h1.28Zm7.76.1q-1.32 0-2.28-.5-.96-.49-1.49-1.39t-.53-2.12q0-1.62.7-2.89t1.94-2 2.83-.73q1.31 0 2.27.49.97.49 1.5 1.38.53.9.53 2.13 0 1.62-.71 2.88-.7 1.27-1.93 2.01t-2.83.74m.09-1.14q1.19 0 2.11-.56.93-.57 1.46-1.58.53-1 .53-2.28 0-1.4-.82-2.18-.82-.77-2.29-.77-1.17 0-2.11.57-.93.58-1.46 1.58t-.53 2.29q0 1.39.81 2.16.82.77 2.3.77m13.48-8.5q1.28 0 2.1.5.82.49 1.13 1.43.32.93.05 2.23l-1.08 5.38h-1.28l1.08-5.4q.29-1.4-.3-2.19-.58-.79-2.06-.79-1.51 0-2.51.82-1 .83-1.34 2.48l-1.01 5.08h-1.27l1.87-9.45h1.22l-.54 2.72-.27-.47q.69-1.22 1.77-1.78 1.09-.56 2.44-.56m7.75 1.69h-.95l.85-4.74h1.13Zm4.56 7.94q-.81 0-1.39-.35-.57-.35-.8-1-.22-.65-.04-1.55l1.72-8.72h1.28l-1.73 8.67q-.18.88.14 1.36.31.49 1.16.49.39 0 .77-.12.38-.11.68-.37l.31.98q-.45.34-1.01.47-.55.14-1.09.14m3.02-8.47h-5.83l.2-1.07h5.84Zm10.59 3.48-3.07 2.38.25-1.57 6.87-5.36h1.82l-5.17 4.02Zm-3.32 4.9h-1.28l2.66-13.35h1.28Zm7.59 0h-1.5l-2.98-4.91.88-.96Zm8.24-9.54q1.27 0 2.09.5.82.49 1.13 1.43.32.93.05 2.23l-1.08 5.38h-1.28l1.08-5.4q.29-1.4-.29-2.19-.59-.79-2.06-.79-1.52 0-2.51.82-1 .83-1.34 2.48l-1.01 5.08h-1.28l1.87-9.45h1.23l-.54 2.72-.27-.47q.68-1.22 1.77-1.78t2.44-.56m9.86 9.64q-1.31 0-2.27-.5-.97-.49-1.5-1.39t-.53-2.12q0-1.62.7-2.89.71-1.27 1.95-2t2.82-.73q1.31 0 2.28.49.96.49 1.49 1.38.53.9.53 2.13 0 1.62-.7 2.88-.7 1.27-1.94 2.01-1.23.74-2.83.74m.09-1.14q1.19 0 2.11-.56.93-.57 1.46-1.58.53-1 .53-2.28 0-1.4-.82-2.18-.81-.77-2.29-.77-1.17 0-2.1.57-.94.58-1.47 1.58t-.53 2.29q0 1.39.82 2.16t2.29.77m10.24 1.05h-1.23l-1.85-9.45h1.17l1.67 8.76h-.57l5-8.76h1.08l1.72 8.76h-.57l4.93-8.76h1.24l-5.34 9.45h-1.24l-1.7-8.24h.4Zm21.23.08q-1.24 0-2.06-.51-.81-.5-1.12-1.44-.31-.93-.07-2.21l1.08-5.38h1.27l-1.08 5.38q-.27 1.41.31 2.21t2.02.8q1.49 0 2.49-.83t1.34-2.48l1-5.08h1.28l-1.89 9.45h-1.22l.54-2.72.27.45q-.67 1.22-1.75 1.79-1.09.57-2.41.57m14.63-9.63q1.28 0 2.09.5.82.49 1.14 1.43.31.93.04 2.23l-1.08 5.38h-1.27l1.08-5.4q.28-1.4-.3-2.19-.59-.79-2.06-.79-1.51 0-2.51.82-1 .83-1.34 2.48l-1.01 5.08h-1.28l1.88-9.45h1.22l-.54 2.72-.27-.47q.68-1.22 1.77-1.78t2.44-.56m8.66 9.63q-.81 0-1.39-.35-.57-.35-.8-1-.22-.65-.04-1.55l1.73-8.72h1.27l-1.72 8.67q-.18.88.13 1.36.32.49 1.16.49.4 0 .77-.12.38-.11.69-.37l.3.98q-.45.34-1 .47-.56.14-1.1.14m3.02-8.47h-5.83l.2-1.07h5.85Zm2.57 8.38h-1.28l1.87-9.45h1.28Zm1.78-11.53q-.38 0-.62-.25-.25-.26-.25-.6 0-.39.28-.68t.71-.29q.38 0 .63.23.25.24.25.6 0 .43-.28.71-.29.28-.72.28m3.05 11.53h-1.27l2.66-13.35h1.28Zm9.85.01h-1.31l2.52-12.59h1.31Zm11.58.08q-.81 0-1.39-.35-.57-.35-.8-1-.22-.65-.04-1.55l1.73-8.72h1.27l-1.72 8.67q-.18.88.13 1.36.32.49 1.16.49.4 0 .77-.12.38-.11.69-.37l.3.98q-.45.34-1 .47-.56.14-1.1.14m3.02-8.47h-5.83l.2-1.07h5.85Zm2.56 8.38h-1.28l1.87-9.45h1.22l-.54 2.79-.14-.48q.63-1.24 1.66-1.82 1.04-.58 2.58-.58l-.23 1.24h-.17q-.08-.01-.19-.01-1.51 0-2.49.87t-1.34 2.63Zm5.45 3.58q-.67 0-1.28-.23-.61-.22-.97-.62l.68-.93q.31.32.72.5t.94.18q.61 0 1.12-.33.51-.34 1.07-1.2l.95-1.46.17-.18 5.61-8.76h1.31l-6.91 10.67q-.59.9-1.11 1.41-.52.52-1.07.73-.55.22-1.23.22m4.01-4.36-.99 1.05-2.43-9.72h1.3Zm6.49.87q-.39 0-.66-.27t-.27-.67q0-.45.3-.74.31-.28.7-.28.4 0 .66.26t.26.67q0 .31-.13.53-.14.23-.37.36-.24.14-.49.14"/></g><path fill="transparent" stroke="transparent" d="M721.5 0h557v159h-557z"/></g></svg>